<mxfile host="app.diagrams.net" agent="Mozilla/5.0 (Windows NT 10.0; Win64; x64) AppleWebKit/537.36 (KHTML, like Gecko) Chrome/134.0.0.0 Safari/537.36" version="26.2.2">
  <diagram id="kgI-eFWLFzmAIh-XpEDJ" name="1 oldal">
    <mxGraphModel dx="2550" dy="919" grid="1" gridSize="10" guides="1" tooltips="1" connect="1" arrows="1" fold="1" page="1" pageScale="1" pageWidth="827" pageHeight="1169" math="0" shadow="0">
      <root>
        <mxCell id="0" />
        <mxCell id="1" parent="0" />
        <mxCell id="p3m-nX79J1ZoF5tqniAr-19" value="Tanszék" style="rounded=0;whiteSpace=wrap;html=1;" vertex="1" parent="1">
          <mxGeometry x="-115" y="550" width="180" height="90" as="geometry" />
        </mxCell>
        <mxCell id="p3m-nX79J1ZoF5tqniAr-20" value="Oktató" style="rounded=0;whiteSpace=wrap;html=1;" vertex="1" parent="1">
          <mxGeometry x="340" y="550" width="180" height="90" as="geometry" />
        </mxCell>
        <mxCell id="p3m-nX79J1ZoF5tqniAr-21" value="Tantárgy" style="rounded=0;whiteSpace=wrap;html=1;" vertex="1" parent="1">
          <mxGeometry x="810" y="550" width="180" height="90" as="geometry" />
        </mxCell>
        <mxCell id="p3m-nX79J1ZoF5tqniAr-22" value="&lt;u&gt;kód&lt;/u&gt;" style="ellipse;whiteSpace=wrap;html=1;" vertex="1" parent="1">
          <mxGeometry x="-190" y="660" width="100" height="66.67" as="geometry" />
        </mxCell>
        <mxCell id="p3m-nX79J1ZoF5tqniAr-23" value="név" style="ellipse;whiteSpace=wrap;html=1;" vertex="1" parent="1">
          <mxGeometry x="-80" y="660" width="100" height="66.67" as="geometry" />
        </mxCell>
        <mxCell id="p3m-nX79J1ZoF5tqniAr-24" value="kar" style="ellipse;whiteSpace=wrap;html=1;" vertex="1" parent="1">
          <mxGeometry x="40" y="660" width="100" height="66.67" as="geometry" />
        </mxCell>
        <mxCell id="p3m-nX79J1ZoF5tqniAr-28" value="&lt;u&gt;neptunkód&lt;/u&gt;" style="ellipse;whiteSpace=wrap;html=1;" vertex="1" parent="1">
          <mxGeometry x="675" y="660" width="100" height="66.67" as="geometry" />
        </mxCell>
        <mxCell id="p3m-nX79J1ZoF5tqniAr-29" value="név" style="ellipse;whiteSpace=wrap;html=1;" vertex="1" parent="1">
          <mxGeometry x="785" y="660" width="100" height="66.67" as="geometry" />
        </mxCell>
        <mxCell id="p3m-nX79J1ZoF5tqniAr-30" value="kredit" style="ellipse;whiteSpace=wrap;html=1;" vertex="1" parent="1">
          <mxGeometry x="905" y="660" width="100" height="66.67" as="geometry" />
        </mxCell>
        <mxCell id="p3m-nX79J1ZoF5tqniAr-31" value="&lt;u&gt;neptunkód&lt;/u&gt;" style="ellipse;whiteSpace=wrap;html=1;" vertex="1" parent="1">
          <mxGeometry x="265" y="660" width="100" height="66.67" as="geometry" />
        </mxCell>
        <mxCell id="p3m-nX79J1ZoF5tqniAr-32" value="név" style="ellipse;whiteSpace=wrap;html=1;" vertex="1" parent="1">
          <mxGeometry x="375" y="660" width="100" height="66.67" as="geometry" />
        </mxCell>
        <mxCell id="p3m-nX79J1ZoF5tqniAr-33" value="beosztás" style="ellipse;whiteSpace=wrap;html=1;" vertex="1" parent="1">
          <mxGeometry x="495" y="660" width="100" height="66.67" as="geometry" />
        </mxCell>
        <mxCell id="p3m-nX79J1ZoF5tqniAr-34" value="lezárás módja" style="ellipse;whiteSpace=wrap;html=1;" vertex="1" parent="1">
          <mxGeometry x="1025" y="660" width="100" height="66.67" as="geometry" />
        </mxCell>
        <mxCell id="p3m-nX79J1ZoF5tqniAr-35" value="" style="endArrow=none;html=1;rounded=0;entryX=0.006;entryY=0.97;entryDx=0;entryDy=0;entryPerimeter=0;exitX=0.533;exitY=0.03;exitDx=0;exitDy=0;exitPerimeter=0;" edge="1" parent="1" source="p3m-nX79J1ZoF5tqniAr-22" target="p3m-nX79J1ZoF5tqniAr-19">
          <mxGeometry width="50" height="50" relative="1" as="geometry">
            <mxPoint x="-165" y="680" as="sourcePoint" />
            <mxPoint x="-115" y="630" as="targetPoint" />
          </mxGeometry>
        </mxCell>
        <mxCell id="p3m-nX79J1ZoF5tqniAr-36" value="" style="endArrow=none;html=1;rounded=0;entryX=0.483;entryY=0.996;entryDx=0;entryDy=0;entryPerimeter=0;exitX=0.53;exitY=-0.015;exitDx=0;exitDy=0;exitPerimeter=0;" edge="1" parent="1" source="p3m-nX79J1ZoF5tqniAr-23" target="p3m-nX79J1ZoF5tqniAr-19">
          <mxGeometry width="50" height="50" relative="1" as="geometry">
            <mxPoint x="-50" y="665" as="sourcePoint" />
            <mxPoint x="-27" y="640" as="targetPoint" />
          </mxGeometry>
        </mxCell>
        <mxCell id="p3m-nX79J1ZoF5tqniAr-37" value="" style="endArrow=none;html=1;rounded=0;entryX=0.965;entryY=0.993;entryDx=0;entryDy=0;entryPerimeter=0;exitX=0.32;exitY=0.05;exitDx=0;exitDy=0;exitPerimeter=0;" edge="1" parent="1" source="p3m-nX79J1ZoF5tqniAr-24" target="p3m-nX79J1ZoF5tqniAr-19">
          <mxGeometry width="50" height="50" relative="1" as="geometry">
            <mxPoint x="51" y="659" as="sourcePoint" />
            <mxPoint x="50" y="640" as="targetPoint" />
          </mxGeometry>
        </mxCell>
        <mxCell id="p3m-nX79J1ZoF5tqniAr-38" value="" style="endArrow=none;html=1;rounded=0;entryX=0.037;entryY=0.981;entryDx=0;entryDy=0;entryPerimeter=0;exitX=0.607;exitY=0.04;exitDx=0;exitDy=0;exitPerimeter=0;" edge="1" parent="1" source="p3m-nX79J1ZoF5tqniAr-31" target="p3m-nX79J1ZoF5tqniAr-20">
          <mxGeometry width="50" height="50" relative="1" as="geometry">
            <mxPoint x="320.5" y="665" as="sourcePoint" />
            <mxPoint x="343.5" y="640" as="targetPoint" />
          </mxGeometry>
        </mxCell>
        <mxCell id="p3m-nX79J1ZoF5tqniAr-39" value="" style="endArrow=none;html=1;rounded=0;entryX=0.489;entryY=1.015;entryDx=0;entryDy=0;entryPerimeter=0;exitX=0.53;exitY=-0.015;exitDx=0;exitDy=0;exitPerimeter=0;" edge="1" parent="1" source="p3m-nX79J1ZoF5tqniAr-32" target="p3m-nX79J1ZoF5tqniAr-20">
          <mxGeometry width="50" height="50" relative="1" as="geometry">
            <mxPoint x="430.5" y="662" as="sourcePoint" />
            <mxPoint x="429.5" y="643" as="targetPoint" />
          </mxGeometry>
        </mxCell>
        <mxCell id="p3m-nX79J1ZoF5tqniAr-40" value="" style="endArrow=none;html=1;rounded=0;entryX=0.976;entryY=0.97;entryDx=0;entryDy=0;entryPerimeter=0;exitX=0.353;exitY=0.045;exitDx=0;exitDy=0;exitPerimeter=0;" edge="1" parent="1" source="p3m-nX79J1ZoF5tqniAr-33" target="p3m-nX79J1ZoF5tqniAr-20">
          <mxGeometry width="50" height="50" relative="1" as="geometry">
            <mxPoint x="529.5" y="666" as="sourcePoint" />
            <mxPoint x="516.5" y="642" as="targetPoint" />
          </mxGeometry>
        </mxCell>
        <mxCell id="p3m-nX79J1ZoF5tqniAr-41" value="" style="endArrow=none;html=1;rounded=0;entryX=0.015;entryY=0.989;entryDx=0;entryDy=0;entryPerimeter=0;exitX=0.787;exitY=0.085;exitDx=0;exitDy=0;exitPerimeter=0;" edge="1" parent="1" source="p3m-nX79J1ZoF5tqniAr-28" target="p3m-nX79J1ZoF5tqniAr-21">
          <mxGeometry width="50" height="50" relative="1" as="geometry">
            <mxPoint x="750" y="666" as="sourcePoint" />
            <mxPoint x="771" y="641" as="targetPoint" />
          </mxGeometry>
        </mxCell>
        <mxCell id="p3m-nX79J1ZoF5tqniAr-42" value="" style="endArrow=none;html=1;rounded=0;entryX=0.163;entryY=0.981;entryDx=0;entryDy=0;entryPerimeter=0;exitX=0.55;exitY=-0.01;exitDx=0;exitDy=0;exitPerimeter=0;" edge="1" parent="1" source="p3m-nX79J1ZoF5tqniAr-29" target="p3m-nX79J1ZoF5tqniAr-21">
          <mxGeometry width="50" height="50" relative="1" as="geometry">
            <mxPoint x="852" y="662" as="sourcePoint" />
            <mxPoint x="852" y="644" as="targetPoint" />
          </mxGeometry>
        </mxCell>
        <mxCell id="p3m-nX79J1ZoF5tqniAr-43" value="" style="endArrow=none;html=1;rounded=0;entryX=0.761;entryY=0.97;entryDx=0;entryDy=0;entryPerimeter=0;exitX=0.447;exitY=0.005;exitDx=0;exitDy=0;exitPerimeter=0;" edge="1" parent="1" source="p3m-nX79J1ZoF5tqniAr-30" target="p3m-nX79J1ZoF5tqniAr-21">
          <mxGeometry width="50" height="50" relative="1" as="geometry">
            <mxPoint x="954" y="666" as="sourcePoint" />
            <mxPoint x="940" y="640" as="targetPoint" />
          </mxGeometry>
        </mxCell>
        <mxCell id="p3m-nX79J1ZoF5tqniAr-44" value="" style="endArrow=none;html=1;rounded=0;entryX=0.98;entryY=0.981;entryDx=0;entryDy=0;entryPerimeter=0;exitX=0.153;exitY=0.1;exitDx=0;exitDy=0;exitPerimeter=0;" edge="1" parent="1" source="p3m-nX79J1ZoF5tqniAr-34" target="p3m-nX79J1ZoF5tqniAr-21">
          <mxGeometry width="50" height="50" relative="1" as="geometry">
            <mxPoint x="993" y="663" as="sourcePoint" />
            <mxPoint x="990" y="640" as="targetPoint" />
          </mxGeometry>
        </mxCell>
        <mxCell id="p3m-nX79J1ZoF5tqniAr-45" value="Tartozik" style="rhombus;whiteSpace=wrap;html=1;" vertex="1" parent="1">
          <mxGeometry x="170" y="560" width="80" height="80" as="geometry" />
        </mxCell>
        <mxCell id="p3m-nX79J1ZoF5tqniAr-46" value="Oktatja" style="rhombus;whiteSpace=wrap;html=1;" vertex="1" parent="1">
          <mxGeometry x="630" y="555" width="80" height="80" as="geometry" />
        </mxCell>
        <mxCell id="p3m-nX79J1ZoF5tqniAr-47" value="" style="endArrow=none;html=1;rounded=0;entryX=0.052;entryY=0.515;entryDx=0;entryDy=0;entryPerimeter=0;exitX=0.996;exitY=0.569;exitDx=0;exitDy=0;exitPerimeter=0;" edge="1" parent="1" source="p3m-nX79J1ZoF5tqniAr-19" target="p3m-nX79J1ZoF5tqniAr-45">
          <mxGeometry width="50" height="50" relative="1" as="geometry">
            <mxPoint x="65" y="585" as="sourcePoint" />
            <mxPoint x="115" y="535" as="targetPoint" />
          </mxGeometry>
        </mxCell>
        <mxCell id="p3m-nX79J1ZoF5tqniAr-48" value="" style="endArrow=none;html=1;rounded=0;entryX=-0.008;entryY=0.558;entryDx=0;entryDy=0;entryPerimeter=0;exitX=0.963;exitY=0.503;exitDx=0;exitDy=0;exitPerimeter=0;" edge="1" parent="1" source="p3m-nX79J1ZoF5tqniAr-45" target="p3m-nX79J1ZoF5tqniAr-20">
          <mxGeometry width="50" height="50" relative="1" as="geometry">
            <mxPoint x="257" y="608" as="sourcePoint" />
            <mxPoint x="365" y="611" as="targetPoint" />
          </mxGeometry>
        </mxCell>
        <mxCell id="p3m-nX79J1ZoF5tqniAr-49" value="1&lt;span style=&quot;color: rgba(0, 0, 0, 0); font-family: monospace; font-size: 0px; text-align: start; text-wrap-mode: nowrap;&quot;&gt;%3CmxGraphModel%3E%3Croot%3E%3CmxCell%20id%3D%220%22%2F%3E%3CmxCell%20id%3D%221%22%20parent%3D%220%22%2F%3E%3CmxCell%20id%3D%222%22%20value%3D%22%22%20style%3D%22endArrow%3Dnone%3Bhtml%3D1%3Brounded%3D0%3BentryX%3D0.064%3BentryY%3D0.515%3BentryDx%3D0%3BentryDy%3D0%3BentryPerimeter%3D0%3BexitX%3D1.009%3BexitY%3D0.537%3BexitDx%3D0%3BexitDy%3D0%3BexitPerimeter%3D0%3B%22%20edge%3D%221%22%20parent%3D%221%22%3E%3CmxGeometry%20width%3D%2250%22%20height%3D%2250%22%20relative%3D%221%22%20as%3D%22geometry%22%3E%3CmxPoint%20x%3D%2267%22%20y%3D%22598%22%20as%3D%22sourcePoint%22%2F%3E%3CmxPoint%20x%3D%22175%22%20y%3D%22601%22%20as%3D%22targetPoint%22%2F%3E%3C%2FmxGeometry%3E%3C%2FmxCell%3E%3C%2Froot%3E%3C%2FmxGraphModel%3E&lt;/span&gt;" style="text;html=1;align=center;verticalAlign=middle;whiteSpace=wrap;rounded=0;" vertex="1" parent="1">
          <mxGeometry x="90" y="600" width="60" height="30" as="geometry" />
        </mxCell>
        <mxCell id="p3m-nX79J1ZoF5tqniAr-50" value="N" style="text;html=1;align=center;verticalAlign=middle;whiteSpace=wrap;rounded=0;" vertex="1" parent="1">
          <mxGeometry x="260" y="600" width="60" height="30" as="geometry" />
        </mxCell>
        <mxCell id="p3m-nX79J1ZoF5tqniAr-51" value="N" style="text;html=1;align=center;verticalAlign=middle;whiteSpace=wrap;rounded=0;" vertex="1" parent="1">
          <mxGeometry x="560" y="600" width="60" height="30" as="geometry" />
        </mxCell>
        <mxCell id="p3m-nX79J1ZoF5tqniAr-52" value="M" style="text;html=1;align=center;verticalAlign=middle;whiteSpace=wrap;rounded=0;" vertex="1" parent="1">
          <mxGeometry x="730" y="600" width="60" height="30" as="geometry" />
        </mxCell>
        <mxCell id="p3m-nX79J1ZoF5tqniAr-53" value="" style="endArrow=none;html=1;rounded=0;entryX=0;entryY=0.5;entryDx=0;entryDy=0;exitX=1;exitY=0.5;exitDx=0;exitDy=0;" edge="1" parent="1" source="p3m-nX79J1ZoF5tqniAr-46" target="p3m-nX79J1ZoF5tqniAr-21">
          <mxGeometry width="50" height="50" relative="1" as="geometry">
            <mxPoint x="710" y="594.76" as="sourcePoint" />
            <mxPoint x="802" y="594.76" as="targetPoint" />
          </mxGeometry>
        </mxCell>
        <mxCell id="p3m-nX79J1ZoF5tqniAr-54" value="" style="endArrow=none;html=1;rounded=0;entryX=0.026;entryY=0.505;entryDx=0;entryDy=0;entryPerimeter=0;exitX=1;exitY=0.5;exitDx=0;exitDy=0;" edge="1" parent="1" source="p3m-nX79J1ZoF5tqniAr-20" target="p3m-nX79J1ZoF5tqniAr-46">
          <mxGeometry width="50" height="50" relative="1" as="geometry">
            <mxPoint x="538" y="594.76" as="sourcePoint" />
            <mxPoint x="630" y="594.76" as="targetPoint" />
          </mxGeometry>
        </mxCell>
        <mxCell id="p3m-nX79J1ZoF5tqniAr-55" value="félév/tanév" style="ellipse;whiteSpace=wrap;html=1;" vertex="1" parent="1">
          <mxGeometry x="640" y="460" width="70" height="46.67" as="geometry" />
        </mxCell>
        <mxCell id="p3m-nX79J1ZoF5tqniAr-56" value="" style="endArrow=none;html=1;rounded=0;exitX=0.49;exitY=0.035;exitDx=0;exitDy=0;exitPerimeter=0;entryX=0.451;entryY=0.999;entryDx=0;entryDy=0;entryPerimeter=0;" edge="1" parent="1" source="p3m-nX79J1ZoF5tqniAr-46" target="p3m-nX79J1ZoF5tqniAr-55">
          <mxGeometry width="50" height="50" relative="1" as="geometry">
            <mxPoint x="670" y="555" as="sourcePoint" />
            <mxPoint x="720" y="505" as="targetPoint" />
          </mxGeometry>
        </mxCell>
      </root>
    </mxGraphModel>
  </diagram>
</mxfile>
